<svg id="svg" version="1.1" width="400" height="400" viewBox="0 0 400 400" xmlns="http://www.w3.org/2000/svg" xmlns:xlink="http://www.w3.org/1999/xlink" ><g id="svgg"><path id="path0" d="M45.680 167.680 C 45.416 167.944,45.200 168.478,45.200 168.867 C 45.200 169.294,44.987 169.493,44.664 169.369 C 43.746 169.017,43.070 170.209,43.612 171.223 C 43.984 171.917,43.975 172.032,43.572 171.783 C 43.213 171.561,43.138 171.662,43.318 172.130 C 43.457 172.493,43.443 172.754,43.286 172.710 C 42.315 172.438,41.267 173.667,41.419 174.899 C 41.508 175.614,41.445 175.985,41.280 175.722 C 40.586 174.616,39.401 175.427,39.357 177.038 C 39.291 179.407,39.266 179.466,38.300 179.432 C 37.476 179.403,37.403 179.571,37.440 181.420 C 37.478 183.342,37.430 183.439,36.443 183.420 C 35.555 183.403,35.406 183.571,35.403 184.600 C 35.401 185.554,35.562 185.785,36.192 185.729 C 36.896 185.666,36.875 185.740,36.002 186.399 L 35.021 187.139 35.810 188.062 C 36.277 188.609,36.336 188.783,35.953 188.488 C 35.428 188.084,35.211 188.104,34.804 188.595 C 34.528 188.928,34.054 189.200,33.751 189.200 C 33.031 189.200,32.984 192.633,33.700 192.967 C 34.095 193.151,34.092 193.250,33.683 193.439 C 33.261 193.634,33.261 193.794,33.683 194.316 C 34.074 194.798,34.078 194.880,33.700 194.653 C 33.425 194.488,33.200 194.543,33.200 194.776 C 33.200 195.370,34.290 195.307,34.535 194.700 C 34.656 194.401,34.750 194.482,34.768 194.900 C 34.796 195.517,34.382 195.773,33.536 195.659 C 33.391 195.640,33.271 197.779,33.269 200.412 C 33.267 203.795,33.403 205.202,33.733 205.206 C 34.028 205.210,34.053 205.320,33.800 205.506 C 32.945 206.134,33.178 208.338,34.118 208.524 L 35.000 208.698 34.100 208.996 C 33.568 209.172,33.200 209.619,33.200 210.089 C 33.200 210.657,33.385 210.815,33.845 210.638 C 34.295 210.465,34.423 210.564,34.268 210.966 C 34.147 211.283,34.307 211.757,34.624 212.020 C 34.941 212.283,35.200 213.036,35.200 213.694 C 35.200 214.791,35.298 214.876,36.379 214.718 C 37.027 214.623,37.466 214.694,37.353 214.876 C 37.240 215.058,37.270 215.589,37.418 216.056 C 37.630 216.724,37.762 216.787,38.038 216.353 C 38.230 216.049,38.391 215.998,38.394 216.240 C 38.407 217.164,40.599 216.651,40.612 215.722 C 40.625 214.750,44.115 211.049,44.580 211.513 C 44.738 211.671,44.807 211.530,44.733 211.200 C 44.660 210.870,44.420 210.468,44.200 210.306 C 43.941 210.116,43.953 210.010,44.235 210.006 C 45.049 209.995,44.826 207.348,43.944 206.549 C 43.489 206.137,43.000 205.800,42.858 205.800 C 42.716 205.800,42.600 205.224,42.600 204.519 C 42.600 203.709,42.306 203.014,41.800 202.627 C 41.143 202.125,41.100 201.949,41.558 201.648 C 42.009 201.351,41.971 201.244,41.358 201.087 C 40.680 200.913,40.675 200.888,41.313 200.846 C 41.710 200.821,42.180 201.199,42.375 201.700 C 42.685 202.501,42.721 202.458,42.701 201.314 C 42.689 200.606,42.542 200.112,42.374 200.216 C 42.206 200.320,42.005 200.214,41.927 199.981 C 41.849 199.747,41.429 199.505,40.993 199.442 C 40.395 199.357,40.184 198.993,40.136 197.964 L 40.073 196.600 40.384 198.000 L 40.695 199.400 40.747 197.947 C 40.787 196.855,40.999 196.441,41.600 196.284 C 42.040 196.169,42.400 195.788,42.400 195.437 C 42.400 194.639,42.220 194.637,41.429 195.429 C 40.897 195.960,40.800 195.967,40.800 195.472 C 40.800 195.150,41.224 194.780,41.743 194.650 C 42.546 194.449,42.688 194.160,42.702 192.707 C 42.738 188.874,42.805 188.401,43.300 188.500 C 43.575 188.555,43.755 188.375,43.700 188.100 C 43.645 187.825,43.816 187.645,44.079 187.700 C 44.403 187.768,44.599 186.961,44.683 185.216 C 44.751 183.795,45.012 182.445,45.262 182.216 C 45.586 181.920,45.636 181.944,45.435 182.300 C 45.249 182.630,45.434 182.800,45.976 182.800 C 46.541 182.800,46.800 182.541,46.800 181.976 C 46.800 181.456,46.630 181.258,46.338 181.438 C 46.044 181.620,45.985 181.547,46.177 181.237 C 46.342 180.970,46.910 180.586,47.439 180.385 C 47.967 180.184,48.400 179.745,48.400 179.410 C 48.400 178.631,48.215 178.642,47.385 179.472 C 46.756 180.101,46.723 180.094,46.862 179.372 C 46.944 178.947,47.233 178.578,47.505 178.550 C 48.814 178.418,48.940 178.318,48.200 178.000 C 47.486 177.693,47.478 177.653,48.124 177.628 C 48.522 177.613,48.736 177.420,48.600 177.200 C 48.464 176.980,48.633 176.778,48.976 176.750 C 49.319 176.722,49.810 176.678,50.066 176.650 C 50.323 176.623,50.598 176.060,50.678 175.400 C 50.758 174.740,51.268 173.804,51.812 173.319 C 53.335 171.962,53.218 169.664,51.609 169.342 C 50.954 169.211,50.214 168.857,49.964 168.556 C 49.714 168.255,49.350 168.107,49.155 168.228 C 48.960 168.349,48.800 168.246,48.800 168.000 C 48.800 167.754,48.620 167.664,48.400 167.800 C 48.180 167.936,48.000 167.857,48.000 167.624 C 48.000 167.045,46.273 167.087,45.680 167.680 M51.592 173.810 C 50.819 174.741,51.371 174.917,52.198 174.002 C 52.597 173.561,52.738 173.200,52.511 173.200 C 52.284 173.200,51.870 173.474,51.592 173.810 M43.204 175.396 C 42.932 175.723,42.547 175.891,42.348 175.768 C 41.838 175.452,42.326 174.800,43.073 174.800 C 43.581 174.800,43.606 174.911,43.204 175.396 M63.879 185.569 C 63.072 186.400,61.835 187.246,61.129 187.449 C 59.686 187.863,58.765 189.994,59.596 190.996 C 59.917 191.383,59.896 191.585,59.517 191.757 C 59.233 191.887,59.450 191.882,60.000 191.747 C 60.550 191.611,60.873 191.635,60.717 191.800 C 60.561 191.965,60.831 192.451,61.317 192.880 C 61.803 193.310,61.996 193.560,61.747 193.436 C 61.456 193.291,61.311 193.638,61.343 194.405 C 61.370 195.062,61.573 195.603,61.796 195.606 C 62.018 195.609,61.956 195.767,61.657 195.956 C 61.058 196.336,61.379 198.000,62.051 198.000 C 62.269 198.000,62.324 198.199,62.174 198.443 C 61.995 198.732,62.161 198.804,62.650 198.650 C 63.352 198.429,63.402 198.707,63.435 203.013 C 63.468 207.225,63.412 207.594,62.769 207.390 C 61.750 207.067,61.409 207.879,61.379 210.700 C 61.359 212.508,61.497 213.200,61.876 213.200 C 62.164 213.200,62.400 213.054,62.400 212.876 C 62.400 212.699,62.665 212.204,62.988 211.776 C 63.518 211.077,63.528 211.131,63.089 212.330 C 62.662 213.495,62.465 213.633,61.501 213.440 C 60.868 213.314,60.400 213.396,60.400 213.634 C 60.400 213.861,60.192 213.919,59.938 213.762 C 59.665 213.593,59.584 213.651,59.741 213.904 C 59.886 214.139,59.779 214.412,59.502 214.511 C 59.226 214.610,59.134 214.834,59.298 215.009 C 59.461 215.185,59.926 215.029,60.331 214.663 C 60.939 214.113,61.067 214.098,61.067 214.581 C 61.067 214.902,60.886 215.053,60.665 214.917 C 60.430 214.771,60.365 214.932,60.509 215.307 C 60.690 215.780,60.552 215.906,59.977 215.796 C 59.121 215.631,58.904 216.213,59.700 216.536 C 60.087 216.693,60.075 216.827,59.649 217.125 C 59.346 217.337,59.212 217.695,59.351 217.921 C 59.490 218.146,59.068 218.569,58.411 218.859 C 57.491 219.266,57.256 219.595,57.383 220.294 C 57.488 220.877,57.343 221.218,56.974 221.250 C 56.658 221.278,56.179 221.322,55.910 221.350 C 55.640 221.378,55.396 221.980,55.367 222.690 C 55.310 224.108,54.607 225.200,53.751 225.200 C 53.448 225.200,53.200 225.573,53.200 226.029 C 53.200 226.983,52.245 228.097,51.783 227.681 C 51.612 227.526,51.601 227.625,51.759 227.900 C 51.918 228.175,51.857 228.400,51.624 228.400 C 51.023 228.400,51.099 229.042,51.781 229.724 C 52.100 230.043,52.235 230.445,52.081 230.616 C 51.926 230.787,52.106 230.818,52.480 230.684 C 52.936 230.521,53.240 230.697,53.406 231.220 C 53.543 231.649,53.832 232.000,54.051 232.000 C 54.269 232.000,54.353 232.153,54.237 232.340 C 54.122 232.526,54.549 232.694,55.185 232.712 C 56.128 232.739,56.315 232.599,56.193 231.962 C 56.110 231.531,56.212 231.284,56.421 231.413 C 56.629 231.542,56.800 231.457,56.800 231.224 C 56.800 230.991,57.083 230.800,57.429 230.800 C 57.998 230.800,57.998 230.859,57.425 231.432 C 56.850 232.007,56.888 232.800,57.490 232.800 C 57.624 232.800,57.624 232.691,57.491 232.557 C 57.130 232.196,58.135 231.247,58.600 231.511 C 58.820 231.635,58.685 231.377,58.299 230.936 C 57.388 229.895,57.895 229.388,58.936 230.299 C 59.377 230.685,59.615 230.790,59.466 230.534 C 59.317 230.278,59.421 229.988,59.698 229.889 C 59.974 229.790,60.055 229.555,59.878 229.366 C 59.701 229.178,59.389 229.288,59.184 229.612 C 58.872 230.105,58.811 230.087,58.806 229.500 C 58.803 229.115,59.025 228.783,59.300 228.762 C 59.575 228.742,60.430 228.697,61.200 228.662 C 62.566 228.602,62.600 228.559,62.609 226.925 C 62.617 225.288,62.892 224.651,63.633 224.550 C 64.847 224.384,64.923 224.311,64.200 224.000 C 63.486 223.693,63.478 223.653,64.124 223.628 C 64.522 223.613,64.744 223.432,64.617 223.227 C 64.490 223.022,64.884 222.797,65.493 222.727 C 66.727 222.585,67.302 220.964,66.335 220.351 C 65.936 220.098,65.927 220.011,66.300 220.006 C 66.575 220.003,66.755 219.791,66.700 219.535 C 66.645 219.280,67.050 218.956,67.600 218.815 C 68.497 218.585,68.600 218.355,68.600 216.579 C 68.601 215.096,68.751 214.595,69.200 214.582 C 69.530 214.572,69.755 214.347,69.700 214.082 C 69.645 213.817,69.735 213.621,69.900 213.647 C 70.703 213.774,70.849 213.539,70.349 212.923 C 70.034 212.534,70.002 212.367,70.273 212.530 C 70.601 212.727,70.711 212.478,70.631 211.726 C 70.567 211.128,70.309 210.570,70.057 210.486 C 69.806 210.402,69.600 210.174,69.600 209.979 C 69.600 209.784,69.884 209.734,70.231 209.867 C 70.765 210.072,70.851 209.749,70.798 207.755 C 70.711 204.523,70.732 204.386,71.300 204.500 C 71.575 204.555,71.755 204.375,71.700 204.100 C 71.645 203.825,71.798 203.645,72.040 203.700 C 72.282 203.755,72.552 203.205,72.639 202.477 C 72.727 201.749,72.638 201.253,72.441 201.375 C 72.244 201.496,72.016 200.892,71.934 200.031 C 71.852 199.171,71.925 198.554,72.095 198.659 C 72.266 198.764,72.508 198.584,72.633 198.258 C 72.916 197.521,71.642 195.498,71.041 195.730 C 70.747 195.842,70.622 195.147,70.665 193.650 C 70.701 192.412,70.521 191.140,70.265 190.823 C 69.907 190.379,69.912 190.314,70.288 190.540 C 70.639 190.750,70.762 190.438,70.724 189.433 C 70.695 188.662,70.520 188.126,70.336 188.240 C 70.151 188.354,70.000 188.285,70.000 188.088 C 70.000 187.890,69.532 187.515,68.959 187.254 C 68.133 186.878,68.014 186.666,68.379 186.226 C 68.874 185.629,68.305 184.964,67.647 185.371 C 67.453 185.491,66.856 185.244,66.320 184.823 L 65.347 184.057 63.879 185.569 M369.206 193.691 C 369.199 194.516,367.418 195.782,366.800 195.400 C 365.847 194.811,365.286 196.023,365.311 198.613 C 365.325 200.036,365.508 201.200,365.717 201.200 C 365.951 201.200,365.945 201.394,365.703 201.700 C 365.288 202.227,365.122 206.877,365.473 208.139 C 365.620 208.668,365.949 208.827,366.627 208.697 C 367.149 208.597,367.490 208.655,367.384 208.826 C 367.279 208.996,367.456 209.399,367.777 209.720 C 368.099 210.042,368.283 210.383,368.187 210.479 C 368.091 210.575,370.215 210.642,372.906 210.627 C 376.597 210.607,377.775 210.477,377.700 210.100 C 377.645 209.825,377.762 209.645,377.960 209.700 C 378.158 209.755,378.293 209.706,378.260 209.590 C 378.110 209.066,379.411 208.107,379.683 208.541 C 379.890 208.870,380.106 208.854,380.480 208.480 C 380.898 208.062,380.882 207.896,380.397 207.589 C 380.026 207.355,379.983 207.210,380.284 207.206 C 380.642 207.202,380.745 205.763,380.684 201.638 C 380.638 198.579,380.465 196.160,380.300 196.262 C 380.135 196.364,380.000 196.276,380.000 196.066 C 380.000 195.857,379.710 195.574,379.355 195.438 C 378.868 195.251,378.776 195.360,378.977 195.883 C 379.322 196.784,378.816 196.272,378.208 195.107 C 377.948 194.608,377.524 194.245,377.267 194.300 C 377.010 194.355,376.787 194.085,376.772 193.700 C 376.748 193.101,376.694 193.116,376.400 193.800 C 376.158 194.364,376.048 194.418,376.028 193.982 C 376.009 193.564,375.536 193.332,374.567 193.267 C 373.660 193.206,373.229 193.323,373.391 193.585 C 373.532 193.813,373.457 194.000,373.224 194.000 C 372.991 194.000,372.800 193.814,372.800 193.587 C 372.800 193.361,372.170 193.217,371.400 193.269 C 370.630 193.321,369.997 193.552,369.994 193.782 C 369.991 194.012,369.813 193.930,369.600 193.600 C 369.268 193.086,369.211 193.099,369.206 193.691 M63.886 197.458 C 63.961 197.683,63.747 197.867,63.411 197.867 C 63.075 197.867,62.800 197.612,62.800 197.300 C 62.800 196.678,63.668 196.805,63.886 197.458 M379.400 197.200 C 378.960 197.389,378.240 197.544,377.800 197.544 L 377.000 197.544 377.800 197.200 C 378.240 197.011,378.960 196.856,379.400 196.856 L 380.200 196.856 379.400 197.200 M42.000 203.606 C 41.520 203.921,41.503 204.067,41.919 204.335 C 42.337 204.606,42.325 204.765,41.855 205.155 C 41.458 205.484,41.188 205.505,41.012 205.219 C 40.869 204.989,40.954 204.800,41.200 204.800 C 41.446 204.800,41.536 204.620,41.400 204.400 C 41.085 203.890,41.504 203.198,42.124 203.206 C 42.411 203.210,42.362 203.368,42.000 203.606 M369.913 209.454 C 370.135 209.317,370.409 209.445,370.522 209.740 C 370.668 210.122,370.452 210.222,369.763 210.091 C 369.210 209.985,368.803 209.629,368.806 209.253 C 368.811 208.726,368.880 208.707,369.161 209.151 C 369.353 209.454,369.692 209.590,369.913 209.454 M39.600 215.380 C 39.710 215.569,39.485 215.770,39.100 215.826 C 38.715 215.883,38.397 215.720,38.394 215.465 C 38.390 215.202,38.219 215.261,38.000 215.600 C 37.787 215.930,37.609 216.005,37.606 215.767 C 37.594 214.910,39.150 214.608,39.600 215.380 M68.300 218.233 C 67.919 218.615,67.155 217.997,67.439 217.538 C 67.607 217.264,67.831 217.271,68.118 217.558 C 68.354 217.794,68.436 218.098,68.300 218.233 M66.300 222.233 C 65.919 222.615,65.155 221.997,65.439 221.538 C 65.607 221.264,65.831 221.271,66.118 221.558 C 66.354 221.794,66.436 222.098,66.300 222.233 M63.429 225.429 C 62.917 225.941,62.841 226.214,63.181 226.327 C 63.812 226.537,64.537 225.812,64.327 225.181 C 64.214 224.841,63.941 224.917,63.429 225.429 M53.068 229.100 C 53.092 229.705,53.027 229.883,52.925 229.495 C 52.817 229.084,52.544 228.908,52.270 229.072 C 52.007 229.229,52.042 229.055,52.349 228.677 C 53.046 227.818,53.018 227.802,53.068 229.100 " stroke="none" fill="#e48404" fill-rule="evenodd"></path><path id="path1" d="M129.223 202.000 L 129.207 220.800 146.003 220.800 L 162.800 220.800 162.800 219.800 C 162.800 218.792,163.668 218.527,166.130 218.784 C 166.646 218.838,166.823 218.636,166.731 218.098 C 166.603 217.338,168.260 215.435,169.815 214.557 C 171.342 213.696,171.152 203.892,169.599 203.400 C 169.089 203.238,168.800 202.794,168.800 202.173 C 168.800 201.411,168.591 201.200,167.833 201.200 C 166.798 201.200,166.420 200.627,166.712 199.500 C 166.818 199.091,167.273 198.800,167.807 198.800 C 168.717 198.800,168.721 198.771,168.733 193.000 L 168.746 187.200 167.773 187.200 C 166.999 187.200,166.800 186.993,166.800 186.188 C 166.800 185.255,166.668 185.181,165.100 185.238 C 161.225 185.380,160.800 185.277,160.800 184.200 L 160.800 183.200 145.020 183.200 L 129.240 183.200 129.223 202.000 M235.223 202.000 L 235.207 220.800 238.020 220.800 L 240.832 220.800 240.736 219.174 C 240.684 218.280,240.496 217.460,240.320 217.351 C 240.144 217.242,240.038 214.328,240.085 210.876 L 240.169 204.600 240.400 211.000 L 240.631 217.400 240.715 211.128 C 240.799 204.957,240.815 204.854,241.700 204.728 C 242.466 204.619,242.618 204.321,242.721 202.725 C 242.823 201.147,242.980 200.830,243.717 200.725 C 244.215 200.654,244.657 200.256,244.742 199.800 C 244.967 198.605,245.057 198.590,251.360 198.721 L 257.200 198.841 257.200 199.821 C 257.200 200.599,257.406 200.800,258.200 200.800 C 259.200 200.800,259.397 201.219,259.211 202.956 C 259.150 203.529,259.308 203.650,259.865 203.455 C 260.539 203.219,260.544 203.242,259.931 203.720 C 259.347 204.176,259.256 205.293,259.217 212.521 L 259.171 220.800 262.939 220.800 C 267.586 220.800,267.188 221.931,267.195 208.733 C 267.200 197.805,267.135 197.200,265.957 197.200 C 265.459 197.200,265.200 196.918,265.200 196.374 C 265.200 194.356,263.988 193.166,262.000 193.231 C 259.539 193.312,259.259 193.222,259.128 192.300 C 259.001 191.410,258.920 191.399,252.100 191.310 L 245.200 191.220 245.200 192.210 C 245.200 193.143,245.074 193.200,243.000 193.200 L 240.800 193.200 240.800 188.200 L 240.800 183.200 238.020 183.200 L 235.240 183.200 235.223 202.000 M270.017 183.983 C 269.340 184.660,269.200 185.313,269.200 187.800 L 269.200 190.800 271.024 190.800 C 272.366 190.800,272.773 190.668,272.565 190.300 C 272.339 189.900,272.390 189.900,272.821 190.300 C 273.118 190.575,274.231 190.800,275.295 190.800 L 277.230 190.800 277.115 187.100 L 277.000 183.400 273.917 183.283 C 271.253 183.183,270.722 183.278,270.017 183.983 M240.293 191.700 C 240.209 192.635,240.140 191.870,240.140 190.000 C 240.140 188.130,240.209 187.365,240.293 188.300 C 240.377 189.235,240.377 190.765,240.293 191.700 M134.293 195.700 C 134.209 196.635,134.140 195.870,134.140 194.000 C 134.140 192.130,134.209 191.365,134.293 192.300 C 134.377 193.235,134.377 194.765,134.293 195.700 M161.241 191.500 C 161.374 193.801,161.051 195.011,160.031 196.031 C 158.677 197.384,159.627 197.301,146.100 197.246 L 134.800 197.200 134.800 194.000 L 134.800 190.800 148.000 190.800 C 160.289 190.800,161.203 190.848,161.241 191.500 M181.449 191.484 C 181.312 191.621,181.200 192.063,181.200 192.467 C 181.200 193.314,181.294 193.299,176.692 193.214 L 173.185 193.149 173.210 206.974 L 173.236 220.800 176.569 220.800 C 181.100 220.800,180.829 221.534,180.786 209.404 C 180.767 203.746,180.820 199.047,180.905 198.962 C 180.990 198.877,182.216 198.783,183.630 198.753 C 185.043 198.723,186.332 198.496,186.494 198.249 C 186.702 197.931,186.790 197.946,186.794 198.300 C 186.798 198.658,187.707 198.800,189.986 198.800 C 192.762 198.800,193.227 198.903,193.600 199.600 C 193.890 200.142,193.895 200.400,193.614 200.400 C 193.386 200.400,193.200 200.940,193.200 201.600 L 193.200 202.800 196.982 202.800 L 200.765 202.800 200.758 199.604 C 200.751 196.504,200.281 195.200,199.171 195.200 C 198.967 195.200,198.800 194.741,198.800 194.179 C 198.800 193.253,198.661 193.165,197.300 193.233 C 194.993 193.349,194.800 193.271,194.800 192.225 L 194.800 191.249 188.249 191.242 C 184.646 191.238,181.586 191.347,181.449 191.484 M207.448 191.486 C 207.311 191.622,207.200 192.063,207.200 192.467 C 207.200 193.221,206.787 193.335,204.500 193.210 C 203.351 193.147,203.200 193.259,203.200 194.169 C 203.200 195.002,203.008 195.200,202.201 195.200 C 201.229 195.200,201.204 195.272,201.245 197.960 L 201.287 200.720 202.743 200.722 C 203.545 200.723,204.460 200.516,204.777 200.262 C 205.223 199.905,205.285 199.913,205.053 200.301 C 204.825 200.680,205.244 200.781,206.775 200.714 C 208.517 200.638,208.767 200.526,208.572 199.911 C 208.200 198.741,208.871 198.655,217.700 198.745 L 223.200 198.800 223.200 200.800 C 223.200 202.700,223.253 202.800,224.267 202.800 C 224.853 202.800,225.237 202.897,225.119 203.015 C 225.000 203.133,220.065 203.268,214.152 203.315 L 203.400 203.400 203.272 204.300 C 203.178 204.960,202.877 205.200,202.142 205.200 C 201.237 205.200,201.146 205.347,201.208 206.700 C 201.317 209.058,201.260 209.200,200.200 209.200 C 199.229 209.200,199.200 209.280,199.200 212.000 C 199.200 214.703,199.234 214.800,200.178 214.800 C 201.061 214.800,201.168 214.985,201.278 216.700 L 201.400 218.600 203.275 218.721 C 204.856 218.823,205.169 218.979,205.275 219.721 C 205.400 220.598,205.417 220.600,214.982 220.600 L 224.564 220.600 224.842 219.600 L 225.120 218.600 225.160 219.715 L 225.200 220.830 228.900 220.715 L 232.600 220.600 232.713 212.000 C 232.838 202.536,232.758 201.768,231.616 201.405 C 230.951 201.194,230.817 200.726,230.717 198.278 C 230.610 195.640,230.525 195.389,229.700 195.272 C 229.040 195.178,228.800 194.877,228.800 194.142 C 228.800 193.237,228.653 193.146,227.300 193.208 C 224.943 193.317,224.800 193.260,224.800 192.207 L 224.800 191.214 216.248 191.226 C 211.544 191.233,207.584 191.349,207.448 191.486 M291.200 192.217 C 291.200 192.758,290.975 193.214,290.700 193.231 C 290.425 193.248,288.175 193.261,285.700 193.260 L 281.200 193.259 281.200 207.029 L 281.200 220.800 284.953 220.800 C 289.565 220.800,289.187 221.768,289.195 209.928 L 289.200 200.856 290.100 200.728 C 290.678 200.646,291.046 200.278,291.128 199.700 C 291.270 198.697,291.221 198.711,294.700 198.729 C 296.355 198.737,297.202 198.582,297.206 198.271 C 297.210 197.939,297.308 197.950,297.535 198.308 C 297.712 198.587,298.204 198.784,298.629 198.745 C 300.637 198.559,301.200 198.790,301.200 199.800 C 301.200 200.600,301.400 200.800,302.200 200.800 C 303.375 200.800,303.279 199.738,303.204 211.900 L 303.148 220.800 306.986 220.800 L 310.824 220.800 310.786 210.825 C 310.759 203.532,310.621 200.799,310.275 200.661 C 310.014 200.558,310.475 200.570,311.300 200.689 C 312.708 200.891,312.800 200.840,312.800 199.852 C 312.800 198.701,312.745 198.717,316.600 198.721 C 317.980 198.722,319.125 198.527,319.294 198.262 C 319.504 197.932,319.589 197.951,319.594 198.329 C 319.597 198.630,319.986 198.826,320.500 198.784 C 322.739 198.603,323.200 198.777,323.200 199.800 C 323.200 200.600,323.400 200.800,324.200 200.800 C 324.881 200.800,325.204 201.024,325.214 201.500 C 325.221 201.885,325.215 206.385,325.200 211.500 L 325.174 220.800 328.968 220.800 L 332.761 220.800 332.788 209.000 L 332.814 197.200 331.807 197.200 C 330.746 197.200,330.655 196.953,330.793 194.461 L 330.868 193.122 328.717 193.261 C 326.578 193.399,326.567 193.394,326.726 192.315 L 326.886 191.231 320.043 191.222 L 313.200 191.213 313.200 192.206 C 313.200 193.231,312.598 193.422,310.047 193.209 C 309.221 193.139,309.120 193.269,309.293 194.174 C 309.403 194.749,309.337 195.315,309.146 195.433 C 308.956 195.551,308.800 195.097,308.800 194.424 C 308.800 193.222,308.764 193.200,306.800 193.200 C 304.936 193.200,304.800 193.132,304.800 192.204 L 304.800 191.209 298.000 191.221 L 291.200 191.234 291.200 192.217 M269.200 206.371 C 269.200 221.963,268.860 220.889,273.744 220.715 L 277.000 220.600 277.105 206.900 L 277.211 193.200 273.205 193.200 L 269.200 193.200 269.200 206.371 M134.296 211.085 C 134.216 212.358,134.151 211.420,134.150 209.000 C 134.149 206.580,134.214 205.538,134.294 206.685 C 134.375 207.832,134.376 209.812,134.296 211.085 M161.200 205.773 C 161.200 206.532,161.438 206.775,162.275 206.873 C 163.205 206.983,163.345 207.176,163.311 208.300 C 163.224 211.228,163.235 211.200,162.200 211.200 C 161.347 211.200,161.200 211.384,161.200 212.447 C 161.200 213.544,161.092 213.664,160.300 213.452 C 159.805 213.319,153.865 213.208,147.100 213.205 L 134.800 213.200 134.800 209.000 L 134.800 204.800 148.000 204.800 L 161.200 204.800 161.200 205.773 M219.270 209.500 L 219.140 210.800 221.170 210.800 C 223.159 210.800,223.200 210.824,223.200 212.000 L 223.200 213.200 220.200 213.200 C 217.267 213.200,217.200 213.222,217.200 214.200 C 217.200 215.044,217.013 215.200,216.000 215.200 C 214.975 215.200,214.800 215.048,214.800 214.164 L 214.800 213.127 210.692 213.264 L 206.583 213.400 206.735 212.100 C 206.884 210.831,206.935 210.800,208.844 210.800 C 210.664 210.800,210.800 210.730,210.800 209.800 C 210.800 208.800,210.801 208.800,215.100 208.721 L 219.400 208.642 215.000 208.393 L 210.600 208.144 215.000 208.172 L 219.400 208.200 219.270 209.500 " stroke="none" fill="#7c7c7c" fill-rule="evenodd"></path><path id="path2" d="M48.000 167.624 C 48.000 167.857,48.165 167.945,48.366 167.821 C 48.567 167.697,48.823 167.821,48.934 168.098 C 49.056 168.401,49.149 168.322,49.168 167.900 C 49.186 167.515,48.930 167.200,48.600 167.200 C 48.270 167.200,48.000 167.391,48.000 167.624 M42.258 171.781 C 40.931 173.011,40.835 173.831,42.100 173.129 C 42.595 172.855,43.129 172.666,43.286 172.710 C 43.443 172.754,43.457 172.493,43.318 172.130 C 43.149 171.689,43.219 171.564,43.527 171.755 C 43.830 171.942,43.908 171.826,43.753 171.421 C 43.451 170.635,43.510 170.621,42.258 171.781 M51.398 173.602 C 50.375 174.732,50.810 174.837,51.886 173.720 C 52.373 173.214,52.626 172.800,52.448 172.800 C 52.270 172.800,51.797 173.161,51.398 173.602 M52.000 174.200 C 51.592 174.691,51.620 174.800,52.151 174.800 C 52.508 174.800,52.800 174.530,52.800 174.200 C 52.800 173.870,52.732 173.600,52.649 173.600 C 52.566 173.600,52.274 173.870,52.000 174.200 M42.217 175.172 C 41.816 175.821,42.687 176.018,43.204 175.396 C 43.606 174.911,43.581 174.800,43.073 174.800 C 42.729 174.800,42.344 174.968,42.217 175.172 M46.980 178.753 C 46.881 178.852,46.800 179.186,46.800 179.495 C 46.800 179.949,46.920 179.937,47.429 179.429 C 48.214 178.643,48.400 178.639,48.400 179.410 C 48.400 179.745,47.967 180.184,47.439 180.385 C 46.910 180.586,46.344 180.987,46.180 181.275 C 45.941 181.697,45.988 181.702,46.421 181.300 C 46.718 181.025,47.374 180.800,47.880 180.800 C 48.631 180.800,48.800 180.584,48.800 179.625 C 48.800 178.541,47.713 178.021,46.980 178.753 M63.985 184.015 C 63.537 184.463,63.281 185.007,63.415 185.225 C 63.550 185.442,63.511 185.594,63.330 185.563 C 62.511 185.420,62.048 185.667,61.464 186.558 C 60.876 187.456,60.884 187.503,61.591 187.318 C 62.553 187.067,65.200 184.437,65.200 183.733 C 65.200 183.002,64.938 183.062,63.985 184.015 M33.925 188.075 C 32.881 189.119,33.643 189.647,34.749 188.647 C 35.312 188.137,35.563 188.109,36.015 188.505 C 36.325 188.777,36.241 188.595,35.827 188.100 C 34.912 187.004,34.995 187.005,33.925 188.075 M43.733 188.278 C 43.733 188.885,44.474 188.779,44.686 188.142 C 44.761 187.917,44.577 187.733,44.278 187.733 C 43.978 187.733,43.733 187.978,43.733 188.278 M59.206 189.051 C 59.197 189.726,60.281 190.517,60.571 190.047 C 60.704 189.832,60.630 189.542,60.407 189.404 C 60.183 189.266,59.997 189.298,59.994 189.476 C 59.991 189.654,59.813 189.530,59.600 189.200 C 59.387 188.870,59.209 188.803,59.206 189.051 M59.200 191.163 C 59.200 191.367,59.425 191.624,59.700 191.735 C 60.100 191.896,60.100 191.943,59.700 191.968 C 58.790 192.026,59.181 192.800,60.120 192.800 C 60.626 192.800,61.215 192.935,61.428 193.100 C 61.642 193.265,61.506 193.107,61.125 192.750 C 60.745 192.392,60.508 192.025,60.599 191.935 C 60.689 191.844,60.412 191.550,59.982 191.281 C 59.552 191.013,59.200 190.960,59.200 191.163 M41.206 192.926 C 41.203 193.106,41.386 193.601,41.614 194.026 C 41.940 194.635,41.897 194.800,41.414 194.800 C 41.076 194.800,40.800 195.083,40.800 195.429 C 40.800 196.000,40.857 196.000,41.429 195.429 C 42.215 194.642,42.400 194.639,42.400 195.413 C 42.400 195.750,41.995 196.189,41.500 196.388 C 40.635 196.735,40.643 196.750,41.700 196.775 C 42.661 196.797,42.800 196.649,42.800 195.600 C 42.800 194.933,42.587 194.400,42.320 194.400 C 41.947 194.400,41.947 194.293,42.320 193.920 C 42.584 193.656,42.797 193.251,42.794 193.020 C 42.791 192.789,42.611 192.870,42.394 193.200 C 42.044 193.733,41.956 193.733,41.606 193.200 C 41.389 192.870,41.209 192.747,41.206 192.926 M367.777 194.263 C 367.235 194.847,366.878 195.412,366.984 195.517 C 367.325 195.859,369.200 194.399,369.200 193.791 C 369.200 192.952,368.900 193.051,367.777 194.263 M377.600 193.951 C 377.600 194.198,377.780 194.400,378.000 194.400 C 378.220 194.400,378.400 194.749,378.400 195.176 C 378.400 195.603,378.554 196.048,378.742 196.164 C 379.304 196.512,378.758 194.463,378.156 193.963 C 377.752 193.628,377.600 193.625,377.600 193.951 M34.432 194.671 C 34.414 194.930,34.085 195.204,33.700 195.280 C 33.292 195.361,33.175 195.529,33.419 195.683 C 34.025 196.065,34.936 195.389,34.680 194.746 C 34.548 194.413,34.451 194.384,34.432 194.671 M71.600 195.490 C 71.600 195.686,71.868 196.196,72.195 196.624 C 72.768 197.372,72.785 197.364,72.658 196.421 C 72.536 195.514,71.600 194.690,71.600 195.490 M40.000 197.976 C 40.000 198.623,40.142 199.241,40.316 199.348 C 40.490 199.456,40.561 198.927,40.473 198.172 C 40.276 196.491,40.000 196.377,40.000 197.976 M62.800 197.300 C 62.800 197.612,63.075 197.867,63.411 197.867 C 64.103 197.867,64.000 197.133,63.275 196.892 C 63.014 196.805,62.800 196.988,62.800 197.300 M377.800 197.200 L 377.000 197.544 377.800 197.544 C 378.240 197.544,378.960 197.389,379.400 197.200 L 380.200 196.856 379.400 196.856 C 378.960 196.856,378.240 197.011,377.800 197.200 M380.425 197.600 C 380.395 198.397,380.309 198.478,380.000 198.000 C 379.718 197.564,379.611 197.543,379.606 197.924 C 379.603 198.229,379.391 198.327,379.100 198.159 C 378.825 198.001,378.740 198.026,378.912 198.214 C 379.813 199.205,381.169 198.356,380.669 197.113 C 380.556 196.831,380.446 197.050,380.425 197.600 M71.938 200.064 C 72.112 201.891,72.800 201.714,72.800 199.843 C 72.800 199.056,72.599 198.533,72.296 198.533 C 71.953 198.533,71.838 199.022,71.938 200.064 M41.358 201.085 C 41.971 201.243,42.009 201.351,41.558 201.648 C 41.094 201.953,41.121 202.107,41.712 202.560 C 42.357 203.055,42.363 203.129,41.770 203.356 C 41.395 203.500,41.214 203.860,41.346 204.203 C 41.472 204.532,41.390 204.800,41.164 204.800 C 40.938 204.800,40.869 204.989,41.012 205.219 C 41.192 205.511,41.429 205.508,41.787 205.211 C 42.176 204.888,42.359 205.001,42.535 205.674 C 42.663 206.164,42.888 206.446,43.034 206.300 C 43.179 206.154,43.158 205.712,42.986 205.317 C 42.814 204.923,42.699 204.471,42.732 204.314 C 42.764 204.157,42.523 204.132,42.195 204.257 C 41.868 204.383,41.600 204.301,41.600 204.076 C 41.600 203.851,41.825 203.592,42.100 203.500 C 43.123 203.159,42.697 200.961,41.600 200.924 C 40.900 200.900,40.828 200.948,41.358 201.085 M71.733 204.278 C 71.733 204.885,72.474 204.779,72.686 204.142 C 72.761 203.917,72.577 203.733,72.278 203.733 C 71.978 203.733,71.733 203.978,71.733 204.278 M33.200 208.800 C 33.200 209.020,33.459 209.200,33.776 209.200 C 34.093 209.200,34.464 209.020,34.600 208.800 C 34.736 208.580,34.477 208.400,34.024 208.400 C 33.571 208.400,33.200 208.580,33.200 208.800 M368.806 209.253 C 368.803 209.629,369.210 209.985,369.763 210.091 C 370.452 210.222,370.668 210.122,370.522 209.740 C 370.409 209.445,370.135 209.317,369.913 209.454 C 369.692 209.590,369.353 209.454,369.161 209.151 C 368.880 208.707,368.811 208.726,368.806 209.253 M377.733 210.278 C 377.733 210.577,377.917 210.761,378.142 210.686 C 378.779 210.474,378.885 209.733,378.278 209.733 C 377.978 209.733,377.733 209.978,377.733 210.278 M42.400 213.100 C 41.190 214.351,40.515 215.134,40.900 214.839 C 41.285 214.543,41.600 214.421,41.600 214.567 C 41.600 214.712,41.851 214.599,42.158 214.316 C 42.465 214.032,42.647 213.685,42.562 213.545 C 42.478 213.405,42.677 213.068,43.004 212.796 C 43.332 212.524,43.600 212.421,43.600 212.567 C 43.600 212.712,43.840 212.607,44.133 212.333 C 44.521 211.971,44.940 210.697,44.633 210.813 C 44.615 210.819,43.610 211.849,42.400 213.100 M62.736 212.181 C 62.490 212.721,61.999 213.240,61.644 213.335 C 61.177 213.460,61.223 213.520,61.812 213.554 C 62.369 213.585,62.767 213.223,63.078 212.400 C 63.622 210.959,63.367 210.796,62.736 212.181 M59.384 213.627 C 59.239 213.861,59.216 214.149,59.333 214.267 C 59.620 214.553,60.400 214.048,60.400 213.576 C 60.400 213.065,59.709 213.099,59.384 213.627 M69.733 214.278 C 69.733 214.577,69.917 214.761,70.142 214.686 C 70.779 214.474,70.885 213.733,70.278 213.733 C 69.978 213.733,69.733 213.978,69.733 214.278 M60.056 214.813 C 59.536 215.246,59.176 215.614,59.256 215.631 C 60.584 215.912,60.727 215.874,60.504 215.295 C 60.364 214.930,60.431 214.772,60.665 214.917 C 60.886 215.053,61.067 214.903,61.067 214.582 C 61.067 214.262,61.052 214.006,61.033 214.013 C 61.015 214.021,60.575 214.381,60.056 214.813 M37.579 215.639 C 37.083 216.566,37.100 217.174,37.600 216.400 C 37.945 215.867,37.989 215.867,38.000 216.400 C 38.011 216.933,38.054 216.933,38.392 216.400 C 38.600 216.070,38.957 215.800,39.185 215.800 C 39.413 215.800,39.555 215.628,39.500 215.418 C 39.325 214.749,37.972 214.904,37.579 215.639 M58.275 217.669 C 56.998 219.048,57.135 219.584,58.569 218.817 C 59.124 218.519,59.446 218.065,59.325 217.749 C 59.209 217.447,59.314 217.200,59.557 217.200 C 59.801 217.200,60.000 217.020,60.000 216.800 C 60.000 216.124,59.450 216.401,58.275 217.669 M67.412 217.580 C 67.283 217.789,67.556 218.163,68.019 218.410 C 68.791 218.823,68.824 218.792,68.416 218.030 C 67.920 217.103,67.754 217.028,67.412 217.580 M65.412 221.580 C 65.283 221.789,65.556 222.163,66.019 222.410 C 66.791 222.823,66.824 222.792,66.416 222.030 C 65.920 221.103,65.754 221.028,65.412 221.580 M53.967 224.033 C 53.508 224.492,53.231 224.964,53.349 225.083 C 53.724 225.458,54.730 224.878,55.188 224.023 C 55.774 222.928,55.065 222.935,53.967 224.033 M62.852 224.987 C 62.238 225.829,62.615 226.602,63.700 226.727 C 64.684 226.840,64.800 226.726,64.800 225.651 C 64.800 224.417,63.574 223.998,62.852 224.987 M64.080 226.080 C 63.855 226.305,63.450 226.417,63.181 226.327 C 62.841 226.214,62.917 225.941,63.429 225.429 C 63.941 224.917,64.214 224.841,64.327 225.181 C 64.417 225.450,64.305 225.855,64.080 226.080 M51.384 227.627 C 51.239 227.861,51.216 228.149,51.333 228.267 C 51.620 228.553,52.400 228.048,52.400 227.576 C 52.400 227.065,51.709 227.099,51.384 227.627 M52.349 228.677 C 52.042 229.055,52.007 229.229,52.270 229.072 C 52.544 228.908,52.817 229.084,52.925 229.495 C 53.027 229.883,53.092 229.705,53.068 229.100 C 53.018 227.802,53.046 227.818,52.349 228.677 M59.500 228.700 C 59.115 228.787,58.800 229.115,58.800 229.429 C 58.800 229.743,58.575 229.955,58.300 229.900 C 58.025 229.845,57.845 230.025,57.900 230.300 C 57.955 230.575,57.730 230.800,57.400 230.800 C 57.070 230.800,56.800 230.991,56.800 231.224 C 56.800 231.457,56.636 231.546,56.435 231.422 C 56.234 231.298,56.117 231.512,56.173 231.898 C 56.315 232.864,58.598 232.893,58.605 231.928 C 58.612 231.074,59.074 230.612,59.928 230.605 C 60.345 230.602,60.617 230.255,60.646 229.690 C 60.698 228.654,60.490 228.475,59.500 228.700 M60.157 229.369 C 59.960 229.880,58.800 230.605,58.800 230.216 C 58.800 230.009,60.009 228.800,60.216 228.800 C 60.303 228.800,60.277 229.056,60.157 229.369 M58.157 231.369 C 57.960 231.880,56.800 232.605,56.800 232.216 C 56.800 232.009,58.009 230.800,58.216 230.800 C 58.303 230.800,58.277 231.056,58.157 231.369 " stroke="none" fill="#ec8404" fill-rule="evenodd"></path><path id="path3" d="" stroke="none" fill="#b8805c" fill-rule="evenodd"></path><path id="path4" d="M240.140 190.000 C 240.140 191.870,240.209 192.635,240.293 191.700 C 240.377 190.765,240.377 189.235,240.293 188.300 C 240.209 187.365,240.140 188.130,240.140 190.000 M134.140 194.000 C 134.140 195.870,134.209 196.635,134.293 195.700 C 134.377 194.765,134.377 193.235,134.293 192.300 C 134.209 191.365,134.140 192.130,134.140 194.000 M134.150 209.000 C 134.151 211.420,134.216 212.358,134.296 211.085 C 134.376 209.812,134.375 207.832,134.294 206.685 C 134.214 205.538,134.149 206.580,134.150 209.000 M240.076 210.876 C 240.034 214.328,240.135 217.237,240.300 217.339 C 240.465 217.442,240.553 215.608,240.495 213.263 C 240.300 205.398,240.152 204.553,240.076 210.876 M212.000 208.259 C 215.312 208.553,219.512 208.576,219.340 208.300 C 219.237 208.135,217.228 208.030,214.876 208.067 C 212.524 208.104,211.230 208.190,212.000 208.259 " stroke="none" fill="#7c8080" fill-rule="evenodd"></path></g></svg>